<?xml version="1.0" encoding="utf-8"?>
<svg version="1.1" id="Layer_1" xmlns="http://www.w3.org/2000/svg" x="0px" y="0px" width="100%" viewBox="0 0 529 454" enable-background="new 0 0 529 454">
  <path fill="#53B997" opacity="1.000000" stroke="none" d=" M308.873322,414.207977 C295.238373,409.913300 283.665833,402.900452 273.292969,392.928497 C269.414642,396.256195 265.623108,399.642242 261.691864,402.857452 C250.404984,412.088379 238.256256,419.787842 224.305923,424.505127 C205.155884,430.980652 187.465637,427.687897 173.267929,413.966003 C150.526321,391.986450 127.981499,369.538300 111.916183,341.874847 C106.446907,332.457123 101.799927,322.302460 98.521103,311.933105 C93.651680,296.533508 95.944427,281.310120 104.062660,266.515778 C101.290237,265.233826 98.656326,264.003723 96.012474,262.795380 C77.411377,254.293976 60.474716,243.608307 49.312569,225.806122 C30.963257,196.541382 28.157242,154.056824 52.851162,125.917946 C67.808418,108.874062 87.291023,99.483093 108.861656,94.072365 C133.865967,87.800346 159.026306,88.436584 184.100418,93.651604 C188.759338,94.620598 190.289581,93.588043 191.596588,89.018509 C199.514084,61.337490 215.687546,40.973320 244.230042,32.582302 C261.474640,27.512672 278.596191,29.435831 295.135651,35.899315 C325.362061,47.711555 349.842224,66.417023 363.577423,96.618492 C367.647644,105.568298 369.643372,115.544418 371.839447,125.220520 C372.650604,128.794556 373.739685,129.592712 377.148895,129.923264 C389.707001,131.140884 402.393066,131.980316 414.709991,134.519272 C432.574585,138.201782 447.475098,148.139816 461.033691,160.008377 C467.667053,165.814865 474.498322,171.547577 480.268707,178.161148 C504.923920,206.419067 500.521362,244.062881 470.099121,266.840302 C464.929016,270.711243 459.206482,273.844391 453.391907,277.539032 C454.376709,278.918457 455.455933,280.496063 456.601196,282.024170 C467.919769,297.125488 474.290222,314.098602 474.702484,332.955750 C475.311707,360.822876 462.832214,381.576477 438.901031,395.437042 C418.908142,407.016571 396.931000,412.936859 374.405640,417.069489 C353.003540,420.996033 331.711945,421.165985 310.657501,414.849640 C310.179962,414.706360 309.722961,414.494537 308.873322,414.207977 M258.334442,123.889359 C257.893768,134.699097 257.632416,145.519821 256.970490,156.315979 C255.974747,172.555618 245.614532,185.490707 230.617615,189.675873 C215.771225,193.819031 200.851105,187.967804 191.118164,174.974731 C188.570267,171.573395 184.642578,168.226791 180.694778,167.051880 C171.832718,164.414444 162.633698,162.426163 153.438400,161.502808 C138.990799,160.052048 124.872032,161.986435 111.812531,169.068497 C108.291466,170.977936 106.476639,173.305435 106.724068,177.733307 C107.225563,186.707825 112.695526,191.448807 119.975395,194.875351 C146.787354,207.495361 174.045578,217.795837 204.612396,216.324463 C222.521393,215.462402 238.242447,229.183075 240.906067,245.899445 C243.837860,264.298767 233.633133,280.896515 215.643982,286.679016 C211.222641,288.100189 206.582336,288.825226 202.108643,290.101410 C191.625946,293.091766 181.183151,296.222046 169.992661,299.510651 C181.328964,319.971710 196.364639,335.453674 211.651855,351.159912 C222.877670,342.756348 232.217102,332.904999 240.327637,321.860382 C241.163910,320.721619 241.442963,319.095215 241.732697,317.645508 C245.276108,299.915070 258.453979,287.768433 275.004700,287.036194 C292.760468,286.250641 307.122375,297.093628 312.153412,314.953644 C313.639526,320.229309 315.126099,325.535797 317.111938,330.633606 C322.132355,343.521393 328.603729,347.743317 342.572235,348.068115 C361.591644,348.510406 379.417877,343.352722 396.897308,336.609009 C404.054810,333.847595 405.003967,331.845367 399.801086,325.978210 C393.673431,319.068268 386.804688,312.558716 379.314087,307.192047 C372.822540,302.541138 365.356049,297.904327 357.718201,296.471161 C340.018646,293.149902 326.274078,279.017242 326.060883,261.290222 C325.840607,242.974518 339.146057,227.518372 357.388885,225.032700 C367.933197,223.596008 378.535919,222.552719 389.044830,220.902451 C397.481781,219.577576 405.817169,217.605896 415.497986,215.659851 C408.471313,209.033386 402.311462,203.895706 394.031281,203.104980 C383.120361,202.063019 372.130676,201.190872 361.189026,201.333694 C352.503876,201.447067 344.052399,202.638123 336.042694,207.737091 C323.385803,215.794479 309.867462,214.957230 297.581299,206.293549 C285.323059,197.649582 280.554993,185.439575 282.914978,170.543549 C284.366913,161.379318 289.930084,154.549774 295.706177,147.815292 C302.054291,140.413895 302.890381,132.782120 297.807312,124.390205 C290.913330,113.008621 280.145325,106.578743 267.988586,102.179558 C264.244049,100.824516 261.752991,102.417107 261.049347,106.255379 C260.032867,111.800301 259.274323,117.392502 258.334442,123.889359 z"/>
</svg>